<!-- svgstack.com --><svg width="242" height="240" viewBox="0 0 242 240" fill="none" xmlns="http://www.w3.org/2000/svg"><g clip-path="url(#clip0_1802_6)"><path d="M129.152 0C130.601 1.01484 132.379 1.04623 133.98 1.56935C143.394 4.77733 151.292 11.3473 156.16 20.0196C171.121 45.9243 186.155 71.808 200.986 97.7598C214.477 121.363 202.262 150.689 176.29 157.562C172.923 158.465 169.454 158.925 165.968 158.933C135.827 158.933 105.685 158.996 75.548 158.933C44.1925 158.849 24.8059 124.894 40.5464 97.7284C55.3645 72.148 70.139 46.5468 84.87 20.9246C91.0218 10.2426 99.763 3.13869 111.889 0.465572C112.093 0.423723 112.245 0.162166 112.412 0H129.152ZM146.645 134.964C164.954 135.011 177.09 116.707 168.647 101.108C160.68 86.3872 152.341 71.8132 143.511 57.6107C132.949 40.599 108.101 41.0698 97.8327 58.2646C89.4629 72.2631 81.4017 86.4448 73.33 100.637C70.9327 104.819 69.8653 109.633 70.2698 114.437C71.0649 124.182 76.3013 130.836 85.2623 134.226C94.5214 137.731 103.048 135.9 110.372 129.126C112.538 127.117 114.452 124.836 116.55 122.749C119.307 120.003 122.529 120.003 125.286 122.749C127.138 124.59 128.848 126.578 130.726 128.388C132.815 130.479 135.297 132.137 138.029 133.265C140.761 134.394 143.689 134.971 146.645 134.964Z" fill="#0045E5"/><path d="M0 224.312C1.04623 223.595 0.983456 222.339 1.35487 221.319C4.81266 211.861 8.32276 202.409 11.5608 192.867C12.6071 189.728 14.8094 189.341 17.404 189.341C19.9987 189.341 22.0493 189.891 23.1217 192.804C26.7835 202.744 30.1576 212.798 33.4427 222.878C33.6572 223.537 33.8612 224.202 34.0443 224.871C34.421 226.273 35.6555 227.795 33.2283 228.685C30.9109 229.532 28.6876 229.035 27.8506 227.042C27.005 224.947 26.2768 222.805 25.6693 220.629C25.2769 219.3 24.712 218.63 23.1583 218.672C19.1547 218.794 15.1442 218.794 11.1267 218.672C9.77179 218.636 9.28529 219.232 8.95573 220.331C8.3803 222.245 7.77872 224.155 7.16668 226.059C6.18845 229.103 3.72981 229.977 0.983456 228.251C0.640635 228.003 0.312279 227.736 0 227.45L0 224.312ZM17.6656 195.608L17.1059 195.572C15.2261 201.061 13.3464 206.548 11.4667 212.034C11.0743 213.185 11.6707 213.337 12.6228 213.331C16.1799 213.305 19.7424 213.331 23.5768 213.331L17.6656 195.608Z" fill="#0045E5"/><path d="M218.045 240C216.873 238.07 217.124 236.626 218.955 235.036C221.304 232.985 223.083 230.328 224.804 227.712C225.41 226.791 225.625 226.143 224.401 225.463C222.695 224.547 221.984 222.779 221.184 221.142C218.217 214.96 215.727 208.562 213.734 202.001C213.326 200.688 212.526 199.302 214.483 198.522C216.298 197.795 218.113 197.612 219.447 199.338C220.013 200.209 220.44 201.162 220.713 202.163C222.962 208.53 225.165 214.906 228.036 221.518C229.679 218.694 230.495 215.932 231.342 213.217C232.588 209.246 233.686 205.223 234.738 201.185C235.548 198.104 237.589 197.136 240.492 198.627L241.575 199.202V203.91C240.722 204.324 240.837 205.229 240.643 205.924C237.118 218.317 232.755 230.286 223.799 239.99L218.045 240Z" fill="#0045E5"/><path d="M150.165 209.173C150.165 204.036 150.223 198.899 150.134 193.762C150.102 191.669 150.986 190.487 152.958 190.016C158.629 188.667 164.347 188.369 169.991 189.954C175.839 191.596 179.172 196.817 178.617 202.932C178 209.733 173.773 214.043 166.68 214.864C164.343 215.113 161.99 215.171 159.644 215.037C157.74 214.943 156.981 215.455 157.107 217.48C157.274 220.258 157.002 223.062 157.196 225.85C157.347 227.974 156.605 228.91 154.523 228.884C152.524 228.852 150.474 228.758 150.254 226.158C150.066 223.909 150.17 221.639 150.165 219.358C150.134 215.963 150.165 212.568 150.165 209.173ZM157.023 202.341C157.023 204.25 157.023 206.16 157.023 208.069C157.023 208.885 156.992 209.638 158.179 209.638C161.041 209.607 163.933 209.863 166.711 208.995C170.075 207.949 171.838 205.333 171.738 201.671C171.639 198.01 169.918 195.959 166.345 195.007C164.116 194.411 161.878 194.588 159.623 194.63C157.53 194.662 156.73 195.546 157.007 197.664C157.104 199.222 157.109 200.783 157.023 202.341Z" fill="#0045E5"/><path d="M207.896 215.455C207.896 217.804 207.818 220.163 207.896 222.507C207.975 224.85 206.908 226.362 204.93 227.267C199.129 229.909 193.176 230.317 187.207 227.953C183.425 226.451 181.793 223.527 181.95 219.232C182.086 215.57 183.953 213.054 187.704 211.705C191.021 210.512 194.536 210.533 197.983 210.099C199.103 209.957 200.913 210.622 201.206 208.854C201.54 206.861 200.85 204.998 198.904 204.01C196.782 202.935 194.345 202.656 192.035 203.225C190.346 203.617 188.677 204.093 187.008 204.569C186.156 204.815 185.313 205.704 184.492 204.522C184.081 204.011 183.837 203.385 183.792 202.731C183.747 202.076 183.904 201.423 184.241 200.86C184.538 200.434 184.923 200.078 185.371 199.814C189.906 196.796 199.982 197.104 204.334 200.337C206.949 202.299 207.724 205.092 207.828 208.147C207.907 210.58 207.828 213.023 207.828 215.471L207.896 215.455ZM201.31 218.918C201.31 217.966 201.31 217.009 201.31 216.052C201.336 215.236 201.179 214.739 200.17 214.833C197.23 215.105 194.259 215.189 191.402 216.005C189.54 216.528 188.478 217.794 188.546 219.839C188.614 221.884 189.687 223.088 191.491 223.689C193.154 224.227 194.916 224.387 196.649 224.16C201.122 223.632 201.31 223.412 201.31 218.918V218.918Z" fill="#0045E5"/><path d="M139.917 215.32C139.917 217.668 139.823 220.028 139.917 222.366C140.011 224.704 139.117 226.258 137.103 227.2C131.228 229.946 125.197 230.338 119.16 227.906C115.456 226.41 113.824 223.454 113.965 219.39C114.096 215.586 116.016 213.049 119.866 211.684C123.104 210.533 126.531 210.559 129.879 210.115C131.05 209.958 132.975 210.8 133.258 208.744C133.54 206.688 132.855 204.925 130.857 203.963C129.045 203.09 127.015 202.775 125.024 203.058C123.038 203.301 121.092 203.799 119.233 204.538C118.187 204.957 117.141 205.694 116.356 204.177C115.655 202.817 115.577 201.504 116.748 200.353C117.711 199.406 118.972 199.009 120.227 198.658C124.412 197.487 128.597 197.256 132.813 198.585C137.438 200.045 139.577 202.692 139.844 207.478C139.99 210.094 139.87 212.709 139.87 215.325L139.917 215.32ZM133.331 218.981C133.331 217.935 133.331 216.889 133.331 215.843C133.331 215.079 133.064 214.76 132.254 214.833C129.23 215.11 126.175 215.163 123.251 216.083C122.436 216.279 121.718 216.761 121.228 217.44C120.738 218.119 120.507 218.952 120.578 219.787C120.556 220.622 120.804 221.442 121.286 222.124C121.767 222.807 122.457 223.315 123.251 223.574C124.976 224.191 126.822 224.392 128.639 224.16C133.132 223.658 133.336 223.423 133.331 218.976V218.981Z" fill="#0045E5"/><path d="M51.7417 197.659C54.1467 197.668 56.5372 198.033 58.8352 198.742C59.9309 199.052 60.916 199.667 61.6757 200.515C62.7219 201.734 62.7219 203.032 61.9111 204.371C61.0009 205.909 59.9808 204.847 59.0235 204.47C56.1568 203.34 53.2692 202.482 50.1306 203.319C48.4304 203.774 46.9919 204.481 46.9396 206.531C46.9082 208.467 48.263 209.21 49.8533 209.701C52.992 210.674 56.2928 211.156 59.238 212.751C62.3767 214.441 63.946 216.973 63.7996 220.598C63.6635 224.103 61.9216 226.436 58.8666 227.963C56.9718 228.827 54.9171 229.283 52.8351 229.302C49.2517 229.475 45.6998 229.224 42.4565 227.445C40.9865 226.64 40.003 225.52 40.1809 223.695C40.3901 221.518 41.5253 220.844 43.4242 221.895C46.4844 223.595 49.7016 224.406 53.2012 223.862C55.0949 223.569 56.8003 222.994 57.0932 220.723C57.4175 218.197 55.8377 217.114 53.7767 216.455C50.638 215.445 47.3162 215.042 44.392 213.405C43.2659 212.791 42.3075 211.911 41.6005 210.841C40.8936 209.771 40.4597 208.544 40.3368 207.267C40.214 205.99 40.4059 204.703 40.8958 203.518C41.3857 202.333 42.1586 201.286 43.147 200.468C44.3424 199.452 45.7625 198.735 47.29 198.376C48.9588 197.942 50.6694 197.544 51.7417 197.659Z" fill="#0045E5"/><path d="M69.0045 206.803C69.0045 202.095 69.1143 197.387 68.9522 192.716C68.8894 190.853 69.4177 189.954 71.2643 189.907C73.1109 189.86 75.0883 189.792 75.5173 192.245C75.6632 193.451 75.7121 194.667 75.6637 195.881C75.6637 199.26 75.6637 199.26 79.1634 199.26C80.7327 199.26 82.3021 199.375 83.8714 199.234C85.7128 199.066 86.1313 200.144 86.194 201.583C86.2568 203.121 85.8331 204.418 83.997 204.491C81.9045 204.564 79.812 204.617 77.7196 204.491C76.1502 204.402 75.5905 204.91 75.6271 206.531C75.7317 210.439 75.6585 214.378 75.6637 218.27C75.6637 222.978 77.6411 224.547 82.4015 223.731C83.7459 223.496 85.4355 222.036 86.1365 224.626C86.623 226.431 85.446 228.241 83.2018 228.863C80.4982 229.596 77.6427 229.553 74.9628 228.737C71.008 227.592 69.1039 225.076 69.0359 220.891C68.9574 216.183 69.0359 211.475 69.0359 206.798L69.0045 206.803Z" fill="#0045E5"/><path d="M91.4617 214.964C91.4617 211.569 91.4983 208.163 91.4617 204.789C91.4014 204.005 91.5614 203.219 91.9237 202.52C92.286 201.821 92.8362 201.237 93.5123 200.835C97.8072 198.103 102.984 197.119 107.982 198.083C108.548 198.141 109.087 198.353 109.541 198.696C109.995 199.039 110.346 199.5 110.555 200.029C111.267 201.855 110.121 203.502 108.212 203.309C105.599 203.048 102.961 203.288 100.438 204.015C98.7225 204.491 97.9379 205.333 97.9849 207.321C98.1419 213.599 97.9274 219.845 98.1053 226.101C98.168 228.282 97.2264 228.889 95.4321 228.858C93.6379 228.826 91.5454 228.758 91.4774 226.185C91.3832 222.444 91.4774 218.704 91.4774 214.969L91.4617 214.964Z" fill="#0045E5"/><path d="M146.645 134.964C143.684 134.968 140.751 134.385 138.016 133.249C135.281 132.113 132.798 130.447 130.711 128.346C128.833 126.536 127.123 124.549 125.271 122.707C122.514 119.982 119.291 119.982 116.535 122.707C114.442 124.8 112.522 127.075 110.357 129.084C103.033 135.858 94.522 137.689 85.2471 134.184C76.2862 130.795 71.0498 124.141 70.2546 114.395C69.8501 109.591 70.9175 104.778 73.3149 100.595C81.3865 86.4239 89.4582 72.2423 97.8176 58.2228C108.086 41.028 132.934 40.5572 143.496 57.5689C152.326 71.7924 160.665 86.3402 168.632 101.066C177.091 116.686 164.965 134.99 146.645 134.964ZM147.801 123.455C157.055 123.455 162.736 113.83 157.74 105.036C150.033 91.5086 142.256 78.0436 134.41 64.6414C128.216 54.0326 113.626 54.0326 107.38 64.61C104.561 69.3913 101.819 74.2197 99.0522 79.0323C93.821 88.1345 88.4643 97.1687 83.4058 106.37C80.1101 112.36 81.6062 118.554 86.738 122.1C91.8698 125.647 98.55 124.836 103.054 120.081C104.728 118.308 106.444 116.571 108.144 114.85C115.394 107.422 126.176 107.338 133.473 114.667C135.006 116.205 136.465 117.806 137.993 119.375C140.457 121.886 143.334 123.487 147.801 123.408V123.455Z" fill="#EAE702"/><path d="M147.801 123.408C143.339 123.486 140.477 121.865 137.993 119.354C136.465 117.784 135.006 116.184 133.473 114.646C126.149 107.322 115.394 107.401 108.144 114.829C106.443 116.571 104.728 118.307 103.054 120.06C98.5496 124.815 91.9009 125.647 86.7377 122.079C81.5746 118.511 80.1098 112.339 83.4055 106.349C88.464 97.1475 93.8207 88.1133 99.0518 79.0111C101.819 74.1984 104.56 69.3701 107.38 64.5888C113.626 54.0114 128.216 54.0114 134.409 64.6202C142.242 78.0363 150.012 91.4926 157.719 104.989C162.736 113.783 157.055 123.413 147.801 123.408Z" fill="#0045E5"/></g><defs><clipPath id="clip0_1802_6"><rect width="241.575" height="240" fill="white"/></clipPath></defs></svg> 